<svg height="480pt" viewBox="0 -8 480 480" width="480pt" xmlns="http://www.w3.org/2000/svg"><path d="m336 152c0 53.019531-42.980469 96-96 96s-96-42.980469-96-96 42.980469-96 96-96 96 42.980469 96 96zm0 0" fill="#dedee6"/><path d="m320 152c0 44.183594-35.816406 80-80 80s-80-35.816406-80-80 35.816406-80 80-80 80 35.816406 80 80zm0 0" fill="#f3f3fb"/><path d="m240 176h16c26.320312 0 47.761719 21.28125 48 47.601562-16.960938 15.199219-39.359375 24.398438-64 24.398438s-47.039062-9.199219-64-24.398438c.238281-26.320312 21.679688-47.601562 48-47.601562zm0 0" fill="#5dbcd9"/><path d="m280 136c0 22.089844-17.910156 40-40 40s-40-17.910156-40-40 17.910156-40 40-40 40 17.910156 40 40zm0 0" fill="#5dbcd9"/><path d="m432 152 40-40v80zm0 0" fill="#ffca55"/><path d="m8 112 40 40-40 40zm0 0" fill="#ffca55"/><g fill="#45639c"><path d="m232 296h16v48h-16zm0 0"/><path d="m416 344h-16v-76.6875l-37.65625-37.65625 11.3125-11.3125 40 40c1.503906 1.496094 2.34375 3.527344 2.34375 5.65625zm0 0"/><path d="m80 344h-16v-80c0-2.128906.839844-4.160156 2.34375-5.65625l40-40 11.3125 11.3125-37.65625 37.65625zm0 0"/><path d="m432 144h16v16h-16zm0 0"/><path d="m464 144h16v16h-16zm0 0"/><path d="m464 176h16v16h-16zm0 0"/><path d="m464 112h16v16h-16zm0 0"/><path d="m0 144h16v16h-16zm0 0"/><path d="m0 176h16v16h-16zm0 0"/><path d="m0 112h16v16h-16zm0 0"/><path d="m32 144h16v16h-16zm0 0"/></g><path d="m224.878906.800781c4.960938-.5625 10-.800781 15.121094-.800781s10.160156.238281 15.121094.800781l5.839844 25.039063c8.320312 1.359375 16.320312 3.519531 24 6.480468l17.519531-18.71875c9.28125 4.160157 18 9.199219 26.160156 15.117188l-7.359375 24.402344c6.398438 5.277344 12.320312 11.199218 17.597656 17.597656l24.402344-7.359375c5.917969 8.160156 10.957031 16.878906 15.199219 26.160156l-18.800781 17.519531c2.960937 7.679688 5.121093 15.679688 6.480468 24l25.039063 5.839844c.5625 4.960938.800781 10 .800781 15.121094s-.238281 10.160156-.800781 15.121094l-25.039063 5.839844c-1.359375 8.320312-3.519531 16.320312-6.480468 24l18.71875 17.519531c-2 4.558593-4.238282 8.960937-6.71875 13.199219-2.558594 4.480468-5.359376 8.800781-8.398438 12.960937l-24.402344-7.359375c-5.277344 6.398438-11.199218 12.320312-17.597656 17.597656l7.359375 24.402344c-8.160156 5.917969-16.878906 10.957031-26.160156 15.199219l-17.519531-18.800781c-7.679688 2.960937-15.679688 5.121093-24 6.480468l-5.839844 25.039063c-4.960938.5625-10 .800781-15.121094.800781s-10.160156-.238281-15.121094-.800781l-5.839844-25.039063c-8.320312-1.359375-16.320312-3.519531-24-6.480468l-17.519531 18.71875c-9.28125-4.160157-18-9.199219-26.160156-15.117188l7.359375-24.402344c-6.398438-5.277344-12.320312-11.199218-17.597656-17.597656l-24.402344 7.359375c-3.039062-4.160156-5.839844-8.480469-8.398438-12.960937-2.480468-4.238282-4.71875-8.640626-6.800781-13.199219l18.800781-17.519531c-2.960937-7.679688-5.121093-15.679688-6.480468-24l-25.039063-5.839844c-.5625-4.960938-.800781-10-.800781-15.121094s.238281-10.160156.800781-15.121094l25.039063-5.839844c1.359375-8.320312 3.519531-16.320312 6.480468-24l-18.71875-17.519531c4.160157-9.28125 9.199219-18 15.117188-26.160156l24.402344 7.359375c5.277344-6.398438 11.199218-12.320312 17.597656-17.597656l-7.359375-24.402344c8.160156-5.917969 16.878906-10.957031 26.160156-15.199219l17.519531 18.800781c7.679688-2.960937 15.679688-5.121093 24-6.480468zm-48.878906 222.800781c16.960938 15.199219 39.359375 24.398438 64 24.398438s47.039062-9.199219 64-24.398438c19.679688-17.601562 32-43.121093 32-71.601562 0-53.039062-42.960938-96-96-96s-96 42.960938-96 96c0 28.480469 12.320312 54 32 71.601562zm0 0" fill="#ee964b"/><path d="m440 416c17.679688 0 32 14.320312 32 32v16h-128v-16c0-17.679688 14.320312-32 32-32zm0 0" fill="#ffca55"/><path d="m448 376c0 22.089844-17.910156 40-40 40s-40-17.910156-40-40 17.910156-40 40-40 40 17.910156 40 40zm0 0" fill="#ffca55"/><path d="m304 464h-128v-16c0-17.679688 14.320312-32 32-32h64c17.679688 0 32 14.320312 32 32zm0 0" fill="#ffca55"/><path d="m280 376c0 22.089844-17.910156 40-40 40s-40-17.910156-40-40 17.910156-40 40-40 40 17.910156 40 40zm0 0" fill="#ffca55"/><path d="m136 464h-128v-16c0-17.679688 14.320312-32 32-32h64c17.679688 0 32 14.320312 32 32zm0 0" fill="#ffca55"/><path d="m112 376c0 22.089844-17.910156 40-40 40s-40-17.910156-40-40 17.910156-40 40-40 40 17.910156 40 40zm0 0" fill="#ffca55"/></svg>